<svg xmlns="http://www.w3.org/2000/svg" viewBox="0, 0, 200, 200">
  <style>
    .picture {
      stroke: #000;
      stroke-width: 1px;
    }
  </style>
  <defs>
    <filter id="shadow" x="-50%" y="-50%" width="200%" height="200%">
      <feOffset result="offOut" in="SourceAlpha" dx="0" dy="0" />
      <feGaussianBlur result="blurOut" in="colorOut" stdDeviation="10" />
      <feBlend in="SourceGraphic" in2="blurOut" mode="normal" />
    </filter>
  </defs>
  <g class="picture">
    <path fill="#2d4726" filter="url(#shadow)" d="m0.16095,117.49616c3.5484,0 8.38712,-9.60803 8.38712,-14.76934c0,-5.16131 5.80647,-15.16134 13.22585,-0.96775c7.41938,14.1936 12.90327,-4.51614 12.58069,-5.80647c-0.32258,-1.29032 9.35487,-30.64527 25.48396,3.5484c8.06455,17.09684 6.7744,-9.42779 16.47214,-1.25663c9.69774,8.17116 9.73815,-23.47831 15.30251,-27.59896c11.12872,-8.24131 14.9997,39.50079 22.0965,43.04919c7.0968,3.5484 12.25811,-23.54847 19.67749,-27.74203c7.41938,-4.19356 17.09754,12.93422 24.67786,11.78971c7.58032,-1.14451 7.25773,-6.95099 10.16097,-13.72521c2.90324,-6.77422 8.06454,25.16139 13.22585,13.87102c5.16131,-11.29036 8.06455,19.67748 19.67749,19.67749c11.61294,0 20.00007,31.93559 20.00007,31.93559c0,0 -252.9041,16.45167 -252.74246,16.30586c-0.16164,0.14581 28.22556,-48.31087 31.77396,-48.31087z" fill-opacity="null" stroke-opacity="null"/>
    <path fill="#485e2f" filter="url(#shadow)" d="m-0.047308,131.11401c37.432,0 196.983128,8.70971 244.725228,39.67756c47.7421,30.96785 -250.32345,37.41948 -250.16181,37.27367c-0.16164,0.14581 -31.995408,-76.95123 5.436582,-76.95123z" fill-opacity="null" stroke-opacity="null"/>
    <path fill="#485e2f" filter="url(#shadow)" d="m200,131.11401c-58.40156,0 -145.16179,38.06465 -170.64575,69.0325c-25.48396,30.96785 175.80706,8.70971 175.64612,8.56389c0.16094,0.14582 53.40118,-77.59639 -5.00037,-77.59639z" fill-opacity="null" stroke-opacity="null"/>
    <path fill="#a3ac51" filter="url(#shadow)" d="m0.16095,164.017357c43.54853,-0.32258 100.00034,4.193563 177.41996,36.129153c77.41962,31.93559 -181.93611,4.51615 -181.77447,4.37033c-0.16164,0.14582 -39.19403,-40.176903 4.35451,-40.499483z" fill-opacity="null" stroke-opacity="null"/>
    <path fill="#a3ac51" filter="url(#shadow)" d="m200,164.33994c-20.01445,0.64517 -50.96791,27.41945 -59.03246,37.74206c-8.06454,10.32262 71.29057,5.16131 71.12963,5.0155c0.16094,0.14581 7.91728,-43.40273 -12.09717,-42.75756z" fill-opacity="null" stroke-opacity="null"/>
  </g>
</svg>