<svg class="rainbow-cloud" xmlns="http://www.w3.org/2000/svg" viewBox="0 100 200 150">
  <style>
    .cloud__body {
      fill: hsl(0, 0%, 100%);
      stroke: #000;
      stroke-width: 1px;
    }
    .cloud__mouth {
      stroke: #000;
      stroke-width: 2px;
    }
  </style>
  <defs>
    <filter id="shadow" x="-50%" y="-50%" width="200%" height="200%">
      <feOffset result="offOut" in="SourceAlpha" dx="10" dy="10" />
      <feGaussianBlur result="blurOut" in="colorOut" stdDeviation="10" />
      <feBlend in="SourceGraphic" in2="blurOut" mode="normal" />
    </filter>
  </defs>
  <g class="cloud__wrapper">
    <g class="cloud rainbow__cloud">
      <g class="cloud__body" filter="url(#shadow)">
        <path d="M96.6 120.51a25.77 25.9 0 00-21.55 11.73 19.47 19.56 0 00-12.18-4.32 19.47 19.56 0 00-19.17 16.25 24.01 24.13 0 00-3.11-.22 24.01 24.13 0 00-24.02 24.13A24.01 24.13 0 0040.6 192.2a24.01 24.13 0 0010.3-2.37 19.47 19.56 0 0015.95 8.38 19.47 19.56 0 0013.42-5.41 19.47 19.56 0 0013.41 5.41 19.47 19.56 0 0014.94-7.03 19.47 19.56 0 0014.92 7.03A19.47 19.56 0 00143 178.66a19.47 19.56 0 00-8.18-15.91 19.47 19.56 0 002.13-8.85 19.47 19.56 0 00-17.5-19.46 25.77 25.9 0 00-22.85-13.93z" stroke="#000" stroke-linecap="round" stroke-linejoin="round"></path>
      </g>
      
      <g class="cloud__face" transform="translate(494.14 30.3)">
        <g class="cloud__eye cloud__eye--left">
          <path d="M-425.3 133.56a2.87 2.87 0 01-2.87 2.87 2.87 2.87 0 01-2.87-2.87 2.87 2.87 0 012.87-2.88 2.87 2.87 0 012.88 2.88z"></path>
          <path d="M-428.29 132.5a.94.94 0 01-.94.93.94.94 0 01-.93-.93.94.94 0 01.93-.94.94.94 0 01.94.94z" fill="#fff"></path>
        </g>
        <g class="cloud__eye cloud__eye--right">
          <path d="M-395.1 133.56a2.87 2.87 0 01-2.87 2.87 2.87 2.87 0 01-2.87-2.87 2.87 2.87 0 012.87-2.88 2.87 2.87 0 012.87 2.88z"></path>
          <path d="M-398.1 132.5a.94.94 0 01-.93.93.94.94 0 01-.94-.93.94.94 0 01.94-.94.94.94 0 01.94.94z" fill="#fff"></path>
        </g>
        <g class="cloud__mouth cloud__mouth--happy">
          <path d="M-409.05 135.35a4.02 3.28 0 010 .08 4.02 3.28 0 01-4.02 3.28 4.02 3.28 0 01-4.02-3.28h0a4.02 3.28 0 010-.08" fill="none" stroke-linecap="round" stroke-linejoin="round"></path>
        </g>
      </g>
      <g class="cloud__cheeks" transform="translate(494.14 30.3)">
        <g class="cloud__cheek cloud__cheek--left">
          <circle cx="-439.04" cy="136.66" r="2.71" fill="#faa" fill-opacity=".5"></circle>
        </g>
        <g class="cloud__cheek cloud__cheek--right">
          <circle r="2.71" cy="136.66" cx="-386.93" fill="#faa" fill-opacity=".5"></circle>
        </g>
      </g>
    </g>
  </g>
</svg>