
<svg xmlns="http://www.w3.org/2000/svg" viewBox="-10 -10 190 190">
  <style>
    .tree__body {
      stroke: #000;
      stroke-width: 0px;
    }
  </style>
  <defs>
    <filter id="shadow" x="-50%" y="-50%" width="200%" height="200%">
      <feOffset result="offOut" in="SourceAlpha" dx="10" dy="10" />
      <feGaussianBlur result="blurOut" in="colorOut" stdDeviation="10" />
      <feBlend in="SourceGraphic" in2="blurOut" mode="normal" />
    </filter>
  </defs>
  <g class="tree__body" filter="url(#shadow)">
    <path d="m90.371555,152.355557c-20.196553,-32.474219 7.488451,-43.888049 7.488451,-43.888049s-2.292289,-3.695617 -3.668037,-1.693746c-1.375124,2.001662 -9.475157,5.081657 -9.169574,3.849575s7.641658,-7.392073 7.641658,-7.392073l-1.375332,-3.54145s-9.169574,10.163733 -10.239738,8.777693c-1.069957,-2.771661 3.667829,-11.087481 3.667829,-11.087481l-6.724493,-3.696036s0,6.775822 -1.222333,13.089561s-4.737994,3.696036 -4.737994,3.696036l-1.222333,-17.863303l-5.808159,1.232082l0.764997,19.556839l-14.824733,-14.937056l-4.737578,4.003324c4.279204,3.387911 14.747818,13.474561 11.614655,12.011647c-2.445081,-2.926247 -14.518318,-6.159572 -14.518318,-6.159572l0,2.617912s13.907152,1.847913 19.867479,13.705393c7.275374,17.200341 -9.787808,26.139952 -12.722238,27.52683c-0.270659,0.128822 -0.420749,0.191871 -0.420749,0.191871l40.346332,0l0.000208,0z" fill="#593003" id="trunk"/>
    <path d="m43.770123,105.503976s1.394041,10.20814 -6.04826,12.552699c-7.442093,2.344558 -13.068565,-1.659603 -15.39765,-7.017128c-0.262344,-0.486381 -12.335166,5.549186 -19.118281,-6.23896c-6.783115,-11.788774 -0.826945,-16.06231 0.024946,-16.917771c0.851891,-0.855671 -5.302595,-6.432297 0.869769,-13.062331c0,0 3.565968,-4.143247 9.38369,-3.813547c1.038359,-1.524288 -2.294992,-11.245837 6.873958,-13.480845c-0.555039,-2.008365 -8.32974,-25.307742 13.984691,-25.596806c-1.268066,-4.390418 8.315188,-17.975786 19.455461,-6.395012c0,0 9.69842,-18.507622 24.548514,-0.711348c1.488419,-0.319855 7.872404,-6.626892 15.08583,2.164417c-0.206217,-4.1776 25.736131,-13.454033 28.249604,11.392464c3.719799,-0.424379 9.557685,4.188911 8.058457,11.576166c0,0 12.668813,1.516537 7.839144,16.499676c12.751341,0.233346 18.454729,23.798745 2.719067,29.343114c0,0 -2.357356,13.273263 -15.737117,6.828608c0,0 -5.111762,7.487589 -12.33184,3.83596c0,0 -13.940413,13.175862 -21.71054,-3.850832c0,0 -9.899231,1.581472 -11.404281,-5.086265c-2.15696,3.530348 -12.221871,4.961004 -14.514161,-0.824251c-1.035865,6.98487 -6.775215,7.698732 -11.234235,4.961633c-2.928194,7.102171 -9.039233,4.001648 -9.596559,3.840149l-0.000208,0.000209z" fill="#5B820F" id="back-green"/>
    <path filter="url(#shadow)" d="m50.400843,98.207553s1.059391,7.956728 -4.534984,9.792923c-5.594538,1.836535 -9.830309,-1.278404 -11.587917,-5.452208c-0.19779,-0.379297 -9.270692,4.340374 -14.385023,-4.841789s-0.640005,-12.52107 0,-13.189056c0.639189,-0.667986 -3.995423,-5.00836 0.639189,-10.184142c0,0 2.677421,-3.234332 7.05277,-2.983965c0.77942,-1.189498 -1.738204,-8.764545 5.154769,-10.517794c-0.419713,-1.565219 -6.293081,-19.719885 10.488902,-19.971444c-0.958784,-3.421681 6.233727,-14.023953 14.624719,-5.00836c0,0 7.273225,-14.440039 18.461486,-0.583508c1.118581,-0.251218 5.913154,-5.175953 11.347895,1.669624c-0.159797,-3.256473 19.340371,-10.518816 21.258428,8.848511c2.796943,-0.335526 7.192511,3.254259 6.073441,9.015252c0,0 9.529629,1.167527 5.914133,12.853871c9.590124,0.166911 13.905631,18.53192 2.077692,22.872635c0,0 -1.758423,10.350713 -11.827939,5.342012c0,0 -3.835952,5.843598 -9.270203,3.005425c0,0 -10.469498,10.288206 -16.332267,-2.976641c0,0 -7.443295,1.244341 -8.582259,-3.95205c-1.618519,2.754717 -9.186391,3.88205 -10.916768,-0.625747c-0.771267,5.446758 -5.086774,6.009998 -8.44317,3.881539c-2.194279,5.540432 -6.79367,3.130097 -7.213057,3.005084l0.000163,-0.00017z" fill="#7BB713" id="Front-green"/>
    <g id="LeafyShadows">
      <path id="svg_3" d="m60.021106,54.007034s2.744548,-10.782562 10.978692,-3.75375c-4.358987,-7.148658 -8.737779,-4.415069 -10.278893,-1.277991c-1.140261,2.320196 -0.699674,5.031741 -0.699674,5.031741l-0.000125,0zm19.062799,0.685595s6.247431,-8.7887 11.432941,1.215766c-1.565179,-8.462366 -6.55089,-7.805094 -9.054275,-5.565121c-1.852093,1.657063 -2.378666,4.349355 -2.378666,4.349355zm-25.25771,22.080785s-2.674229,-10.804327 7.640512,-9.544473c-7.056907,-3.598187 -9.528328,1.266132 -9.385435,4.83781c0.10529,2.642065 1.744798,4.706663 1.744798,4.706663l0.000125,0zm33.312486,6.216394s7.219855,-7.811651 11.194536,2.857622c-0.565054,-8.616953 -5.58536,-8.685596 -8.328654,-6.82637c-2.029331,1.375375 -2.865756,3.968748 -2.865756,3.968748l-0.000125,0zm-50.374658,0.077572s0.411757,-11.197491 9.890575,-6.497943c-5.735774,-5.821138 -9.42166,-2.026927 -10.263726,1.42337c-0.622712,2.552215 0.373277,5.074713 0.373277,5.074713l-0.000125,-0.00014z" fill="#B8E058" opacity="0.7"/>
      <path id="svg_4" d="m99.387992,63.813803s8.308599,-6.329963 10.594134,4.936171c0.760842,-8.598118 -4.175483,-9.616744 -7.16345,-8.304152c-2.210203,0.970631 -3.430685,3.367981 -3.430685,3.367981z" fill="#B8E058"/>
    </g>
  </g>
</svg>